<svg xmlns="http://www.w3.org/2000/svg" viewBox="0 0 128 128" width="128" height="128">
  <defs>
    <linearGradient id="rainbow" x1="0%" y1="0%" x2="100%" y2="100%">
      <stop offset="0%" stop-color="#4285f4"/>
      <stop offset="34%" stop-color="#4285f4"/>
      <stop offset="34%" stop-color="#ea4335"/>
      <stop offset="51%" stop-color="#ea4335"/>
      <stop offset="51%" stop-color="#fbbc04"/>
      <stop offset="68%" stop-color="#fbbc04"/>
      <stop offset="68%" stop-color="#34a853"/>
      <stop offset="100%" stop-color="#34a853"/>
    </linearGradient>
    <clipPath id="person">
      <path transform="translate(4,4) scale(0.47)" d="M100 36a28 28 0 1 1 28 28a28 28 0 0 1-28-28Zm127.6 56.57A15.7 15.7 0 0 0 212 80H44a16 16 0 0 0-6.7 30.53h.06l53.89 23.73l-21.92 83.3a16 16 0 0 0 7.9 20.91A15.83 15.83 0 0 0 84 240a16 16 0 0 0 14.44-9.06L128 180l29.58 51a16 16 0 0 0 29.07-13.35l-21.92-83.3l54-23.76a15.7 15.7 0 0 0 8.87-18.02Z"/>
    </clipPath>
  </defs>
  <rect width="128" height="128" fill="url(#rainbow)" clip-path="url(#person)"/>
</svg>
